<?xml version="1.0" encoding="UTF-8" standalone="no"?>
<!DOCTYPE svg PUBLIC "-//W3C//DTD SVG 1.1//EN"
 "http://www.w3.org/Graphics/SVG/1.1/DTD/svg11.dtd">
<!-- Generated by graphviz version 9.0.0 (20230911.1827)
 -->
<!-- Pages: 1 -->
<svg width="1829pt" height="620pt"
 viewBox="0.00 0.00 1829.12 620.00" xmlns="http://www.w3.org/2000/svg" xmlns:xlink="http://www.w3.org/1999/xlink">
<g id="graph0" class="graph" transform="scale(1 1) rotate(0) translate(4 616)">
<polygon fill="white" stroke="none" points="-4,4 -4,-616 1825.12,-616 1825.12,4 -4,4"/>
<!-- [root] azurerm_network_interface.abcinterface (expand) -->
<g id="node1" class="node">
<title>[root] azurerm_network_interface.abcinterface (expand)</title>
<polygon fill="none" stroke="black" points="502.75,-396 264,-396 264,-360 502.75,-360 502.75,-396"/>
<text text-anchor="middle" x="383.38" y="-372.57" font-family="Times New Roman,serif" font-size="14.00">azurerm_network_interface.abcinterface</text>
</g>
<!-- [root] azurerm_public_ip.abcip (expand) -->
<g id="node4" class="node">
<title>[root] azurerm_public_ip.abcip (expand)</title>
<polygon fill="none" stroke="black" points="460.75,-324 306,-324 306,-288 460.75,-288 460.75,-324"/>
<text text-anchor="middle" x="383.38" y="-300.57" font-family="Times New Roman,serif" font-size="14.00">azurerm_public_ip.abcip</text>
</g>
<!-- [root] azurerm_network_interface.abcinterface (expand)&#45;&gt;[root] azurerm_public_ip.abcip (expand) -->
<g id="edge1" class="edge">
<title>[root] azurerm_network_interface.abcinterface (expand)&#45;&gt;[root] azurerm_public_ip.abcip (expand)</title>
<path fill="none" stroke="black" d="M383.38,-359.7C383.38,-352.41 383.38,-343.73 383.38,-335.54"/>
<polygon fill="black" stroke="black" points="386.88,-335.62 383.38,-325.62 379.88,-335.62 386.88,-335.62"/>
</g>
<!-- [root] azurerm_subnet.subnets (expand) -->
<g id="node10" class="node">
<title>[root] azurerm_subnet.subnets (expand)</title>
<polygon fill="none" stroke="black" points="353.88,-252 202.88,-252 202.88,-216 353.88,-216 353.88,-252"/>
<text text-anchor="middle" x="278.38" y="-228.57" font-family="Times New Roman,serif" font-size="14.00">azurerm_subnet.subnets</text>
</g>
<!-- [root] azurerm_network_interface.abcinterface (expand)&#45;&gt;[root] azurerm_subnet.subnets (expand) -->
<g id="edge2" class="edge">
<title>[root] azurerm_network_interface.abcinterface (expand)&#45;&gt;[root] azurerm_subnet.subnets (expand)</title>
<path fill="none" stroke="black" d="M340.88,-359.62C324.99,-351.11 308.19,-339.33 297.38,-324 284.97,-306.42 280.39,-282.36 278.81,-263.69"/>
<polygon fill="black" stroke="black" points="282.32,-263.61 278.25,-253.83 275.33,-264.01 282.32,-263.61"/>
</g>
<!-- [root] azurerm_network_interface_security_group_association.abcnsglink (expand) -->
<g id="node2" class="node">
<title>[root] azurerm_network_interface_security_group_association.abcnsglink (expand)</title>
<polygon fill="none" stroke="black" points="920.25,-468 528.5,-468 528.5,-432 920.25,-432 920.25,-468"/>
<text text-anchor="middle" x="724.38" y="-444.57" font-family="Times New Roman,serif" font-size="14.00">azurerm_network_interface_security_group_association.abcnsglink</text>
</g>
<!-- [root] azurerm_network_interface_security_group_association.abcnsglink (expand)&#45;&gt;[root] azurerm_network_interface.abcinterface (expand) -->
<g id="edge3" class="edge">
<title>[root] azurerm_network_interface_security_group_association.abcnsglink (expand)&#45;&gt;[root] azurerm_network_interface.abcinterface (expand)</title>
<path fill="none" stroke="black" d="M639.21,-431.52C590.7,-421.56 529.77,-409.05 479.55,-398.74"/>
<polygon fill="black" stroke="black" points="480.33,-395.33 469.83,-396.75 478.92,-402.19 480.33,-395.33"/>
</g>
<!-- [root] azurerm_network_security_group.abcnsg (expand) -->
<g id="node3" class="node">
<title>[root] azurerm_network_security_group.abcnsg (expand)</title>
<polygon fill="none" stroke="black" points="1121.25,-396 873.5,-396 873.5,-360 1121.25,-360 1121.25,-396"/>
<text text-anchor="middle" x="997.38" y="-372.57" font-family="Times New Roman,serif" font-size="14.00">azurerm_network_security_group.abcnsg</text>
</g>
<!-- [root] azurerm_network_interface_security_group_association.abcnsglink (expand)&#45;&gt;[root] azurerm_network_security_group.abcnsg (expand) -->
<g id="edge4" class="edge">
<title>[root] azurerm_network_interface_security_group_association.abcnsglink (expand)&#45;&gt;[root] azurerm_network_security_group.abcnsg (expand)</title>
<path fill="none" stroke="black" d="M792.56,-431.52C830.82,-421.71 878.72,-409.43 918.57,-399.21"/>
<polygon fill="black" stroke="black" points="919.3,-402.63 928.12,-396.76 917.56,-395.85 919.3,-402.63"/>
</g>
<!-- [root] azurerm_resource_group.abc (expand) -->
<g id="node5" class="node">
<title>[root] azurerm_resource_group.abc (expand)</title>
<polygon fill="none" stroke="black" points="861.5,-108 681.25,-108 681.25,-72 861.5,-72 861.5,-108"/>
<text text-anchor="middle" x="771.38" y="-84.58" font-family="Times New Roman,serif" font-size="14.00">azurerm_resource_group.abc</text>
</g>
<!-- [root] azurerm_network_security_group.abcnsg (expand)&#45;&gt;[root] azurerm_resource_group.abc (expand) -->
<g id="edge5" class="edge">
<title>[root] azurerm_network_security_group.abcnsg (expand)&#45;&gt;[root] azurerm_resource_group.abc (expand)</title>
<path fill="none" stroke="black" d="M1121.53,-366.13C1180.83,-355.08 1234.09,-332.83 1209.38,-288 1180.45,-235.52 1148.92,-242.91 1095.38,-216 1008.88,-172.52 903.43,-134.41 836.83,-112.04"/>
<polygon fill="black" stroke="black" points="838.11,-108.78 827.51,-108.93 835.89,-115.41 838.11,-108.78"/>
</g>
<!-- [root] local.network_security_group_rules (expand) -->
<g id="node20" class="node">
<title>[root] local.network_security_group_rules (expand)</title>
<ellipse fill="none" stroke="black" cx="997.38" cy="-306" rx="203.26" ry="18"/>
<text text-anchor="middle" x="997.38" y="-300.57" font-family="Times New Roman,serif" font-size="14.00">[root] local.network_security_group_rules (expand)</text>
</g>
<!-- [root] azurerm_network_security_group.abcnsg (expand)&#45;&gt;[root] local.network_security_group_rules (expand) -->
<g id="edge6" class="edge">
<title>[root] azurerm_network_security_group.abcnsg (expand)&#45;&gt;[root] local.network_security_group_rules (expand)</title>
<path fill="none" stroke="black" d="M997.38,-359.7C997.38,-352.41 997.38,-343.73 997.38,-335.54"/>
<polygon fill="black" stroke="black" points="1000.88,-335.62 997.38,-325.62 993.88,-335.62 1000.88,-335.62"/>
</g>
<!-- [root] azurerm_public_ip.abcip (expand)&#45;&gt;[root] azurerm_resource_group.abc (expand) -->
<g id="edge7" class="edge">
<title>[root] azurerm_public_ip.abcip (expand)&#45;&gt;[root] azurerm_resource_group.abc (expand)</title>
<path fill="none" stroke="black" d="M389.84,-287.55C398.04,-267.64 413.99,-235.37 437.38,-216 504.5,-160.4 598.8,-128.15 670.09,-110.38"/>
<polygon fill="black" stroke="black" points="670.51,-113.88 679.41,-108.12 668.86,-107.08 670.51,-113.88"/>
</g>
<!-- [root] var.number_of_machine -->
<g id="node17" class="node">
<title>[root] var.number_of_machine</title>
<polygon fill="none" stroke="black" points="592.25,-252 446.5,-252 446.5,-216 598.25,-216 598.25,-246 592.25,-252"/>
<polyline fill="none" stroke="black" points="592.25,-252 592.25,-246"/>
<polyline fill="none" stroke="black" points="598.25,-246 592.25,-246"/>
<text text-anchor="middle" x="522.38" y="-228.57" font-family="Times New Roman,serif" font-size="14.00">var.number_of_machine</text>
</g>
<!-- [root] azurerm_public_ip.abcip (expand)&#45;&gt;[root] var.number_of_machine -->
<g id="edge8" class="edge">
<title>[root] azurerm_public_ip.abcip (expand)&#45;&gt;[root] var.number_of_machine</title>
<path fill="none" stroke="black" d="M418.09,-287.52C436.22,-278.39 458.61,-267.11 477.99,-257.35"/>
<polygon fill="black" stroke="black" points="479.39,-260.57 486.75,-252.94 476.24,-254.31 479.39,-260.57"/>
</g>
<!-- [root] provider[&quot;registry.terraform.io/hashicorp/azurerm&quot;] -->
<g id="node13" class="node">
<title>[root] provider[&quot;registry.terraform.io/hashicorp/azurerm&quot;]</title>
<polygon fill="none" stroke="black" points="350.38,-36 66.45,-18 350.37,0 634.3,-18 350.38,-36"/>
<text text-anchor="middle" x="350.38" y="-12.58" font-family="Times New Roman,serif" font-size="14.00">provider[&quot;registry.terraform.io/hashicorp/azurerm&quot;]</text>
</g>
<!-- [root] azurerm_resource_group.abc (expand)&#45;&gt;[root] provider[&quot;registry.terraform.io/hashicorp/azurerm&quot;] -->
<g id="edge11" class="edge">
<title>[root] azurerm_resource_group.abc (expand)&#45;&gt;[root] provider[&quot;registry.terraform.io/hashicorp/azurerm&quot;]</title>
<path fill="none" stroke="black" d="M680.8,-73.94C608.77,-61.96 508.63,-45.31 437.51,-33.49"/>
<polygon fill="black" stroke="black" points="438.29,-30.07 427.85,-31.88 437.14,-36.97 438.29,-30.07"/>
</g>
<!-- [root] local.location (expand) -->
<g id="node21" class="node">
<title>[root] local.location (expand)</title>
<ellipse fill="none" stroke="black" cx="771.38" cy="-18" rx="119.43" ry="18"/>
<text text-anchor="middle" x="771.38" y="-12.58" font-family="Times New Roman,serif" font-size="14.00">[root] local.location (expand)</text>
</g>
<!-- [root] azurerm_resource_group.abc (expand)&#45;&gt;[root] local.location (expand) -->
<g id="edge9" class="edge">
<title>[root] azurerm_resource_group.abc (expand)&#45;&gt;[root] local.location (expand)</title>
<path fill="none" stroke="black" d="M771.38,-71.7C771.38,-64.41 771.38,-55.73 771.38,-47.54"/>
<polygon fill="black" stroke="black" points="774.88,-47.62 771.38,-37.62 767.88,-47.62 774.88,-47.62"/>
</g>
<!-- [root] local.resource_group_name (expand) -->
<g id="node22" class="node">
<title>[root] local.resource_group_name (expand)</title>
<ellipse fill="none" stroke="black" cx="1082.38" cy="-18" rx="173.32" ry="18"/>
<text text-anchor="middle" x="1082.38" y="-12.58" font-family="Times New Roman,serif" font-size="14.00">[root] local.resource_group_name (expand)</text>
</g>
<!-- [root] azurerm_resource_group.abc (expand)&#45;&gt;[root] local.resource_group_name (expand) -->
<g id="edge10" class="edge">
<title>[root] azurerm_resource_group.abc (expand)&#45;&gt;[root] local.resource_group_name (expand)</title>
<path fill="none" stroke="black" d="M849.05,-71.52C895.27,-61.11 953.85,-47.93 1000.75,-37.37"/>
<polygon fill="black" stroke="black" points="1001.33,-40.83 1010.32,-35.22 999.79,-34 1001.33,-40.83"/>
</g>
<!-- [root] azurerm_storage_account.datalakestore (expand) -->
<g id="node6" class="node">
<title>[root] azurerm_storage_account.datalakestore (expand)</title>
<polygon fill="none" stroke="black" points="1667.62,-324 1431.12,-324 1431.12,-288 1667.62,-288 1667.62,-324"/>
<text text-anchor="middle" x="1549.38" y="-300.57" font-family="Times New Roman,serif" font-size="14.00">azurerm_storage_account.datalakestore</text>
</g>
<!-- [root] azurerm_storage_account.datalakestore (expand)&#45;&gt;[root] azurerm_resource_group.abc (expand) -->
<g id="edge12" class="edge">
<title>[root] azurerm_storage_account.datalakestore (expand)&#45;&gt;[root] azurerm_resource_group.abc (expand)</title>
<path fill="none" stroke="black" d="M1566.62,-287.72C1596.66,-255.57 1651.82,-186.01 1612.38,-144 1587.43,-117.43 1091.56,-100.11 873.17,-93.74"/>
<polygon fill="black" stroke="black" points="873.32,-90.24 863.23,-93.45 873.12,-97.24 873.32,-90.24"/>
</g>
<!-- [root] random_uuid.storageaccountidentifier (expand) -->
<g id="node15" class="node">
<title>[root] random_uuid.storageaccountidentifier (expand)</title>
<polygon fill="none" stroke="black" points="1433.75,-252 1207,-252 1207,-216 1433.75,-216 1433.75,-252"/>
<text text-anchor="middle" x="1320.38" y="-228.57" font-family="Times New Roman,serif" font-size="14.00">random_uuid.storageaccountidentifier</text>
</g>
<!-- [root] azurerm_storage_account.datalakestore (expand)&#45;&gt;[root] random_uuid.storageaccountidentifier (expand) -->
<g id="edge13" class="edge">
<title>[root] azurerm_storage_account.datalakestore (expand)&#45;&gt;[root] random_uuid.storageaccountidentifier (expand)</title>
<path fill="none" stroke="black" d="M1492.18,-287.52C1460.64,-277.88 1421.28,-265.84 1388.2,-255.73"/>
<polygon fill="black" stroke="black" points="1389.27,-252.4 1378.69,-252.82 1387.23,-259.09 1389.27,-252.4"/>
</g>
<!-- [root] var.data_lake_store_name -->
<g id="node16" class="node">
<title>[root] var.data_lake_store_name</title>
<polygon fill="none" stroke="black" points="1815.12,-252 1659.62,-252 1659.62,-216 1821.12,-216 1821.12,-246 1815.12,-252"/>
<polyline fill="none" stroke="black" points="1815.12,-252 1815.12,-246"/>
<polyline fill="none" stroke="black" points="1821.12,-246 1815.12,-246"/>
<text text-anchor="middle" x="1740.38" y="-228.57" font-family="Times New Roman,serif" font-size="14.00">var.data_lake_store_name</text>
</g>
<!-- [root] azurerm_storage_account.datalakestore (expand)&#45;&gt;[root] var.data_lake_store_name -->
<g id="edge14" class="edge">
<title>[root] azurerm_storage_account.datalakestore (expand)&#45;&gt;[root] var.data_lake_store_name</title>
<path fill="none" stroke="black" d="M1597.08,-287.52C1622.93,-278.04 1655.07,-266.26 1682.36,-256.26"/>
<polygon fill="black" stroke="black" points="1683.34,-259.63 1691.53,-252.9 1680.93,-253.06 1683.34,-259.63"/>
</g>
<!-- [root] azurerm_storage_account.storageaccountresource (expand) -->
<g id="node7" class="node">
<title>[root] azurerm_storage_account.storageaccountresource (expand)</title>
<polygon fill="none" stroke="black" points="775.62,-324 479.12,-324 479.12,-288 775.62,-288 775.62,-324"/>
<text text-anchor="middle" x="627.38" y="-300.57" font-family="Times New Roman,serif" font-size="14.00">azurerm_storage_account.storageaccountresource</text>
</g>
<!-- [root] azurerm_storage_account.storageaccountresource (expand)&#45;&gt;[root] azurerm_subnet.subnets (expand) -->
<g id="edge15" class="edge">
<title>[root] azurerm_storage_account.storageaccountresource (expand)&#45;&gt;[root] azurerm_subnet.subnets (expand)</title>
<path fill="none" stroke="black" d="M540.21,-287.52C486.87,-276.82 418.85,-263.18 365.52,-252.48"/>
<polygon fill="black" stroke="black" points="366.34,-249.07 355.85,-250.54 364.97,-255.94 366.34,-249.07"/>
</g>
<!-- [root] azurerm_storage_account.storageaccountresource (expand)&#45;&gt;[root] random_uuid.storageaccountidentifier (expand) -->
<g id="edge17" class="edge">
<title>[root] azurerm_storage_account.storageaccountresource (expand)&#45;&gt;[root] random_uuid.storageaccountidentifier (expand)</title>
<path fill="none" stroke="black" d="M775.81,-288.99C779.03,-288.66 782.22,-288.33 785.38,-288 925.71,-273.5 1086.83,-257.65 1195.28,-247.09"/>
<polygon fill="black" stroke="black" points="1195.47,-250.59 1205.08,-246.14 1194.79,-243.62 1195.47,-250.59"/>
</g>
<!-- [root] azurerm_storage_account.storageaccountresource (expand)&#45;&gt;[root] var.number_of_machine -->
<g id="edge18" class="edge">
<title>[root] azurerm_storage_account.storageaccountresource (expand)&#45;&gt;[root] var.number_of_machine</title>
<path fill="none" stroke="black" d="M601.15,-287.52C588.02,-278.76 571.94,-268.04 557.74,-258.58"/>
<polygon fill="black" stroke="black" points="559.79,-255.73 549.53,-253.1 555.9,-261.56 559.79,-255.73"/>
</g>
<!-- [root] var.storage_account_name -->
<g id="node19" class="node">
<title>[root] var.storage_account_name</title>
<polygon fill="none" stroke="black" points="1080.38,-252 920.38,-252 920.38,-216 1086.38,-216 1086.38,-246 1080.38,-252"/>
<polyline fill="none" stroke="black" points="1080.38,-252 1080.38,-246"/>
<polyline fill="none" stroke="black" points="1086.38,-246 1080.38,-246"/>
<text text-anchor="middle" x="1003.38" y="-228.57" font-family="Times New Roman,serif" font-size="14.00">var.storage_account_name</text>
</g>
<!-- [root] azurerm_storage_account.storageaccountresource (expand)&#45;&gt;[root] var.storage_account_name -->
<g id="edge19" class="edge">
<title>[root] azurerm_storage_account.storageaccountresource (expand)&#45;&gt;[root] var.storage_account_name</title>
<path fill="none" stroke="black" d="M721.29,-287.52C778.49,-276.87 851.34,-263.3 908.68,-252.63"/>
<polygon fill="black" stroke="black" points="909.26,-256.08 918.45,-250.81 907.98,-249.2 909.26,-256.08"/>
</g>
<!-- [root] local.common_tags (expand) -->
<g id="node23" class="node">
<title>[root] local.common_tags (expand)</title>
<ellipse fill="none" stroke="black" cx="759.38" cy="-234" rx="142.88" ry="18"/>
<text text-anchor="middle" x="759.38" y="-228.57" font-family="Times New Roman,serif" font-size="14.00">[root] local.common_tags (expand)</text>
</g>
<!-- [root] azurerm_storage_account.storageaccountresource (expand)&#45;&gt;[root] local.common_tags (expand) -->
<g id="edge16" class="edge">
<title>[root] azurerm_storage_account.storageaccountresource (expand)&#45;&gt;[root] local.common_tags (expand)</title>
<path fill="none" stroke="black" d="M660.34,-287.52C677.53,-278.4 698.75,-267.15 717.12,-257.41"/>
<polygon fill="black" stroke="black" points="718.75,-260.51 725.94,-252.73 715.47,-254.32 718.75,-260.51"/>
</g>
<!-- [root] azurerm_storage_blob.IISConfig (expand) -->
<g id="node8" class="node">
<title>[root] azurerm_storage_blob.IISConfig (expand)</title>
<polygon fill="none" stroke="black" points="1138.62,-468 938.12,-468 938.12,-432 1138.62,-432 1138.62,-468"/>
<text text-anchor="middle" x="1038.38" y="-444.57" font-family="Times New Roman,serif" font-size="14.00">azurerm_storage_blob.IISConfig</text>
</g>
<!-- [root] azurerm_storage_container.data (expand) -->
<g id="node9" class="node">
<title>[root] azurerm_storage_container.data (expand)</title>
<polygon fill="none" stroke="black" points="789.25,-396 595.5,-396 595.5,-360 789.25,-360 789.25,-396"/>
<text text-anchor="middle" x="692.38" y="-372.57" font-family="Times New Roman,serif" font-size="14.00">azurerm_storage_container.data</text>
</g>
<!-- [root] azurerm_storage_blob.IISConfig (expand)&#45;&gt;[root] azurerm_storage_container.data (expand) -->
<g id="edge20" class="edge">
<title>[root] azurerm_storage_blob.IISConfig (expand)&#45;&gt;[root] azurerm_storage_container.data (expand)</title>
<path fill="none" stroke="black" d="M951.96,-431.52C902.63,-421.54 840.66,-409 789.64,-398.68"/>
<polygon fill="black" stroke="black" points="790.57,-395.3 780.07,-396.74 789.18,-402.16 790.57,-395.3"/>
</g>
<!-- [root] azurerm_storage_container.data (expand)&#45;&gt;[root] azurerm_storage_account.storageaccountresource (expand) -->
<g id="edge21" class="edge">
<title>[root] azurerm_storage_container.data (expand)&#45;&gt;[root] azurerm_storage_account.storageaccountresource (expand)</title>
<path fill="none" stroke="black" d="M676.31,-359.7C668.67,-351.47 659.4,-341.48 650.98,-332.42"/>
<polygon fill="black" stroke="black" points="653.66,-330.16 644.29,-325.21 648.53,-334.92 653.66,-330.16"/>
</g>
<!-- [root] azurerm_virtual_network.abcnetwork (expand) -->
<g id="node11" class="node">
<title>[root] azurerm_virtual_network.abcnetwork (expand)</title>
<polygon fill="none" stroke="black" points="389.88,-180 166.88,-180 166.88,-144 389.88,-144 389.88,-180"/>
<text text-anchor="middle" x="278.38" y="-156.57" font-family="Times New Roman,serif" font-size="14.00">azurerm_virtual_network.abcnetwork</text>
</g>
<!-- [root] azurerm_subnet.subnets (expand)&#45;&gt;[root] azurerm_virtual_network.abcnetwork (expand) -->
<g id="edge22" class="edge">
<title>[root] azurerm_subnet.subnets (expand)&#45;&gt;[root] azurerm_virtual_network.abcnetwork (expand)</title>
<path fill="none" stroke="black" d="M278.38,-215.7C278.38,-208.41 278.38,-199.73 278.38,-191.54"/>
<polygon fill="black" stroke="black" points="281.88,-191.62 278.38,-181.62 274.88,-191.62 281.88,-191.62"/>
</g>
<!-- [root] var.number_of_subnets -->
<g id="node18" class="node">
<title>[root] var.number_of_subnets</title>
<polygon fill="none" stroke="black" points="142.75,-180 0,-180 0,-144 148.75,-144 148.75,-174 142.75,-180"/>
<polyline fill="none" stroke="black" points="142.75,-180 142.75,-174"/>
<polyline fill="none" stroke="black" points="148.75,-174 142.75,-174"/>
<text text-anchor="middle" x="74.38" y="-156.57" font-family="Times New Roman,serif" font-size="14.00">var.number_of_subnets</text>
</g>
<!-- [root] azurerm_subnet.subnets (expand)&#45;&gt;[root] var.number_of_subnets -->
<g id="edge23" class="edge">
<title>[root] azurerm_subnet.subnets (expand)&#45;&gt;[root] var.number_of_subnets</title>
<path fill="none" stroke="black" d="M227.42,-215.52C199.57,-205.96 164.87,-194.05 135.56,-184"/>
<polygon fill="black" stroke="black" points="137.06,-180.81 126.46,-180.87 134.78,-187.43 137.06,-180.81"/>
</g>
<!-- [root] azurerm_virtual_network.abcnetwork (expand)&#45;&gt;[root] azurerm_resource_group.abc (expand) -->
<g id="edge24" class="edge">
<title>[root] azurerm_virtual_network.abcnetwork (expand)&#45;&gt;[root] azurerm_resource_group.abc (expand)</title>
<path fill="none" stroke="black" d="M390.24,-145.12C474.22,-133.19 588.27,-117 669.68,-105.44"/>
<polygon fill="black" stroke="black" points="670.03,-108.92 679.44,-104.05 669.05,-101.99 670.03,-108.92"/>
</g>
<!-- [root] local.virtual_network (expand) -->
<g id="node24" class="node">
<title>[root] local.virtual_network (expand)</title>
<ellipse fill="none" stroke="black" cx="278.38" cy="-90" rx="147.37" ry="18"/>
<text text-anchor="middle" x="278.38" y="-84.58" font-family="Times New Roman,serif" font-size="14.00">[root] local.virtual_network (expand)</text>
</g>
<!-- [root] azurerm_virtual_network.abcnetwork (expand)&#45;&gt;[root] local.virtual_network (expand) -->
<g id="edge25" class="edge">
<title>[root] azurerm_virtual_network.abcnetwork (expand)&#45;&gt;[root] local.virtual_network (expand)</title>
<path fill="none" stroke="black" d="M278.38,-143.7C278.38,-136.41 278.38,-127.73 278.38,-119.54"/>
<polygon fill="black" stroke="black" points="281.88,-119.62 278.38,-109.62 274.88,-119.62 281.88,-119.62"/>
</g>
<!-- [root] azurerm_windows_virtual_machine.abcvm (expand) -->
<g id="node12" class="node">
<title>[root] azurerm_windows_virtual_machine.abcvm (expand)</title>
<polygon fill="none" stroke="black" points="510.25,-468 256.5,-468 256.5,-432 510.25,-432 510.25,-468"/>
<text text-anchor="middle" x="383.38" y="-444.57" font-family="Times New Roman,serif" font-size="14.00">azurerm_windows_virtual_machine.abcvm</text>
</g>
<!-- [root] azurerm_windows_virtual_machine.abcvm (expand)&#45;&gt;[root] azurerm_network_interface.abcinterface (expand) -->
<g id="edge26" class="edge">
<title>[root] azurerm_windows_virtual_machine.abcvm (expand)&#45;&gt;[root] azurerm_network_interface.abcinterface (expand)</title>
<path fill="none" stroke="black" d="M383.38,-431.7C383.38,-424.41 383.38,-415.73 383.38,-407.54"/>
<polygon fill="black" stroke="black" points="386.88,-407.62 383.38,-397.62 379.88,-407.62 386.88,-407.62"/>
</g>
<!-- [root] provider[&quot;registry.terraform.io/hashicorp/random&quot;] -->
<g id="node14" class="node">
<title>[root] provider[&quot;registry.terraform.io/hashicorp/random&quot;]</title>
<polygon fill="none" stroke="black" points="1320.38,-180 1037.87,-162 1320.38,-144 1602.88,-162 1320.38,-180"/>
<text text-anchor="middle" x="1320.38" y="-156.57" font-family="Times New Roman,serif" font-size="14.00">provider[&quot;registry.terraform.io/hashicorp/random&quot;]</text>
</g>
<!-- [root] random_uuid.storageaccountidentifier (expand)&#45;&gt;[root] provider[&quot;registry.terraform.io/hashicorp/random&quot;] -->
<g id="edge32" class="edge">
<title>[root] random_uuid.storageaccountidentifier (expand)&#45;&gt;[root] provider[&quot;registry.terraform.io/hashicorp/random&quot;]</title>
<path fill="none" stroke="black" d="M1320.38,-215.7C1320.38,-208.41 1320.38,-199.73 1320.38,-191.54"/>
<polygon fill="black" stroke="black" points="1323.88,-191.62 1320.38,-181.62 1316.88,-191.62 1323.88,-191.62"/>
</g>
<!-- [root] provider[&quot;registry.terraform.io/hashicorp/azurerm&quot;] (close) -->
<g id="node25" class="node">
<title>[root] provider[&quot;registry.terraform.io/hashicorp/azurerm&quot;] (close)</title>
<ellipse fill="none" stroke="black" cx="798.38" cy="-522" rx="252.66" ry="18"/>
<text text-anchor="middle" x="798.38" y="-516.58" font-family="Times New Roman,serif" font-size="14.00">[root] provider[&quot;registry.terraform.io/hashicorp/azurerm&quot;] (close)</text>
</g>
<!-- [root] provider[&quot;registry.terraform.io/hashicorp/azurerm&quot;] (close)&#45;&gt;[root] azurerm_network_interface_security_group_association.abcnsglink (expand) -->
<g id="edge27" class="edge">
<title>[root] provider[&quot;registry.terraform.io/hashicorp/azurerm&quot;] (close)&#45;&gt;[root] azurerm_network_interface_security_group_association.abcnsglink (expand)</title>
<path fill="none" stroke="black" d="M780.08,-503.7C771.28,-495.37 760.55,-485.22 750.88,-476.07"/>
<polygon fill="black" stroke="black" points="753.48,-473.72 743.81,-469.39 748.67,-478.8 753.48,-473.72"/>
</g>
<!-- [root] provider[&quot;registry.terraform.io/hashicorp/azurerm&quot;] (close)&#45;&gt;[root] azurerm_storage_account.datalakestore (expand) -->
<g id="edge28" class="edge">
<title>[root] provider[&quot;registry.terraform.io/hashicorp/azurerm&quot;] (close)&#45;&gt;[root] azurerm_storage_account.datalakestore (expand)</title>
<path fill="none" stroke="black" d="M941.71,-506.78C1005.4,-498.54 1080.85,-486.11 1147.38,-468 1280.99,-431.62 1430.44,-364.25 1503.77,-329.31"/>
<polygon fill="black" stroke="black" points="1505.15,-332.53 1512.66,-325.05 1502.13,-326.21 1505.15,-332.53"/>
</g>
<!-- [root] provider[&quot;registry.terraform.io/hashicorp/azurerm&quot;] (close)&#45;&gt;[root] azurerm_storage_blob.IISConfig (expand) -->
<g id="edge29" class="edge">
<title>[root] provider[&quot;registry.terraform.io/hashicorp/azurerm&quot;] (close)&#45;&gt;[root] azurerm_storage_blob.IISConfig (expand)</title>
<path fill="none" stroke="black" d="M856.47,-504.05C890.04,-494.26 932.51,-481.88 967.96,-471.54"/>
<polygon fill="black" stroke="black" points="968.65,-474.98 977.27,-468.82 966.69,-468.26 968.65,-474.98"/>
</g>
<!-- [root] provider[&quot;registry.terraform.io/hashicorp/azurerm&quot;] (close)&#45;&gt;[root] azurerm_windows_virtual_machine.abcvm (expand) -->
<g id="edge30" class="edge">
<title>[root] provider[&quot;registry.terraform.io/hashicorp/azurerm&quot;] (close)&#45;&gt;[root] azurerm_windows_virtual_machine.abcvm (expand)</title>
<path fill="none" stroke="black" d="M702.91,-504.9C641.93,-494.61 562.52,-481.22 498.13,-470.36"/>
<polygon fill="black" stroke="black" points="499.04,-466.96 488.6,-468.75 497.88,-473.86 499.04,-466.96"/>
</g>
<!-- [root] provider[&quot;registry.terraform.io/hashicorp/random&quot;] (close) -->
<g id="node26" class="node">
<title>[root] provider[&quot;registry.terraform.io/hashicorp/random&quot;] (close)</title>
<ellipse fill="none" stroke="black" cx="1320.38" cy="-522" rx="251.66" ry="18"/>
<text text-anchor="middle" x="1320.38" y="-516.58" font-family="Times New Roman,serif" font-size="14.00">[root] provider[&quot;registry.terraform.io/hashicorp/random&quot;] (close)</text>
</g>
<!-- [root] provider[&quot;registry.terraform.io/hashicorp/random&quot;] (close)&#45;&gt;[root] random_uuid.storageaccountidentifier (expand) -->
<g id="edge31" class="edge">
<title>[root] provider[&quot;registry.terraform.io/hashicorp/random&quot;] (close)&#45;&gt;[root] random_uuid.storageaccountidentifier (expand)</title>
<path fill="none" stroke="black" d="M1320.38,-503.54C1320.38,-455.76 1320.38,-322.51 1320.38,-263.61"/>
<polygon fill="black" stroke="black" points="1323.88,-263.75 1320.38,-253.75 1316.88,-263.75 1323.88,-263.75"/>
</g>
<!-- [root] root -->
<g id="node27" class="node">
<title>[root] root</title>
<ellipse fill="none" stroke="black" cx="1059.38" cy="-594" rx="50.07" ry="18"/>
<text text-anchor="middle" x="1059.38" y="-588.58" font-family="Times New Roman,serif" font-size="14.00">[root] root</text>
</g>
<!-- [root] root&#45;&gt;[root] provider[&quot;registry.terraform.io/hashicorp/azurerm&quot;] (close) -->
<g id="edge33" class="edge">
<title>[root] root&#45;&gt;[root] provider[&quot;registry.terraform.io/hashicorp/azurerm&quot;] (close)</title>
<path fill="none" stroke="black" d="M1020.02,-582.44C981.04,-571.99 920.41,-555.73 872.4,-542.85"/>
<polygon fill="black" stroke="black" points="873.46,-539.51 862.89,-540.3 871.64,-546.27 873.46,-539.51"/>
</g>
<!-- [root] root&#45;&gt;[root] provider[&quot;registry.terraform.io/hashicorp/random&quot;] (close) -->
<g id="edge34" class="edge">
<title>[root] root&#45;&gt;[root] provider[&quot;registry.terraform.io/hashicorp/random&quot;] (close)</title>
<path fill="none" stroke="black" d="M1098.73,-582.44C1137.71,-571.99 1198.34,-555.73 1246.35,-542.85"/>
<polygon fill="black" stroke="black" points="1247.11,-546.27 1255.86,-540.3 1245.29,-539.51 1247.11,-546.27"/>
</g>
</g>
</svg>
